<?xml version="1.0" standalone="no"?><!DOCTYPE svg PUBLIC "-//W3C//DTD SVG 1.1//EN" "http://www.w3.org/Graphics/SVG/1.1/DTD/svg11.dtd"><svg t="1727349718891" class="icon" viewBox="0 0 1024 1024" version="1.1" xmlns="http://www.w3.org/2000/svg" p-id="2988" xmlns:xlink="http://www.w3.org/1999/xlink" width="200" height="200"><path d="M514.7392 976.9216c-256.5376 0-465.2544-208.7168-465.2544-465.2544S258.2016 46.4128 514.7392 46.4128s465.2544 208.7168 465.2544 465.2544-208.7168 465.2544-465.2544 465.2544z m0-894.6688c-236.7744 0-429.4144 192.64-429.4144 429.4144s192.64 429.4144 429.4144 429.4144 429.4144-192.64 429.4144-429.4144S751.5136 82.2528 514.7392 82.2528z" fill="#474E54" p-id="2989"></path><path d="M291.2256 372.5568c55.8848-41.0368 115.8144-151.7824 251.52-151.7824s213.4784 105.2672 237.2864 164.7616c23.808 59.4944 42.8544 101.6064 69.8368 129.3824 26.9824 27.7504 63.488 191.0016-93.6448 245.9136-157.1328 54.912-577.4848 70.8608-599.936-141.8752-20.5824-195.5328 77.7984-204.4672 134.9376-246.4z" fill="#DADAF7" p-id="2990"></path><path d="M505.0624 814.1824c-102.016 0-207.8208-16.512-280.32-62.4384-51.5072-32.6144-80.512-76.672-86.2464-130.9696-18.1248-171.8272 52.8128-211.328 109.824-243.0464 11.7504-6.528 22.8608-12.7232 32.3072-19.6608 13.1328-9.6512 26.9056-23.9104 42.8544-40.4224 46.7968-48.4608 110.848-114.8416 219.2896-114.8416 144.8448 0 227.7888 110.6432 253.9264 176.0256 22.0672 55.1424 37.888 84.48 67.6864 125.4912 20.0704 27.6224 42.624 92.0576 22.5024 156.3904-11.7504 37.5808-42.9312 88.3712-124.7232 116.9664-57.344 20.0704-155.3408 36.5056-257.1008 36.5056z m37.7088-575.5136c-93.2096 0-148.8128 57.6-193.4848 103.8848-16.3584 16.9472-31.8208 32.9728-47.4368 44.416-11.264 8.2688-23.8848 15.2832-36.096 22.0928-52.736 29.3376-107.264 59.6992-91.5968 207.9744 4.5312 42.8288 28.0064 77.9776 69.7856 104.448 123.8272 78.4384 382.6432 65.664 506.4192 22.4 54.3744-18.9952 88.8064-50.56 102.3232-93.824 16.0768-51.3792-2.0736-103.7056-17.28-124.6464-31.8208-43.8016-48.64-74.9312-71.9616-133.248-22.8352-57.0112-94.976-153.4976-220.672-153.4976z m-251.5456 133.888z" fill="#474E54" p-id="2991"></path><path d="M531.6864 478.6176m-146.048 0a146.048 146.048 0 1 0 292.096 0 146.048 146.048 0 1 0-292.096 0Z" fill="#F4CA00" p-id="2992"></path><path d="M531.6864 642.5856c-90.4192 0-163.968-73.5488-163.968-163.968s73.5488-163.968 163.968-163.968 163.968 73.5488 163.968 163.968-73.5744 163.968-163.968 163.968z m0-292.0704c-70.656 0-128.128 57.472-128.128 128.128s57.472 128.128 128.128 128.128 128.128-57.472 128.128-128.128-57.4976-128.128-128.128-128.128z" fill="#474E54" p-id="2993"></path><path d="M461.6704 443.3408c-3.7888 0-7.5776-1.1776-10.8288-3.6608a17.92 17.92 0 0 1-3.4304-25.1136c27.8528-36.6592 75.7504-51.0464 119.2448-35.84a17.90976 17.90976 0 0 1 10.9824 22.8352 17.90976 17.90976 0 0 1-22.8352 10.9824 69.7344 69.7344 0 0 0-78.848 23.68 17.82784 17.82784 0 0 1-14.2848 7.1168zM340.352 704.64c-1.2032 0-2.4064-0.128-3.6352-0.3584-61.3632-12.6208-85.376-52.5824-94.72-83.8912-9.7536-32.64-5.4016-62.2848-5.1968-63.5392 1.4848-9.7792 10.6496-16.4864 20.4288-15.0016a17.92 17.92 0 0 1 15.0272 20.3776c-0.0768 0.6144-3.2768 24.1152 4.4288 48.9728 9.7024 31.2832 32.3328 50.7904 67.3024 57.984 9.7024 1.9968 15.9232 11.4688 13.952 21.1712-1.792 8.448-9.2672 14.2848-17.5872 14.2848zM732.2112 692.5824c-6.5024 0-12.7744-3.5584-15.9488-9.728-4.5312-8.8064-1.0496-19.6096 7.7568-24.1408 48.768-25.0624 43.5456-82.816 43.3152-85.2736-0.9984-9.8048 6.144-18.6368 15.9488-19.6608a17.8944 17.8944 0 0 1 19.6864 15.8464c0.384 3.4304 8.3712 84.48-62.5664 120.96-2.6368 1.3568-5.4272 1.9968-8.192 1.9968z" fill="#F7F8F8" p-id="2994"></path></svg>